<mxfile host="app.diagrams.net" modified="2022-09-07T14:36:57.512Z" agent="5.0 (Windows)" etag="1dUckAM2xBbPWBl-XFp6" version="20.2.8" type="github">
  <diagram id="kgpKYQtTHZ0yAKxKKP6v" name="Page-1">
    <mxGraphModel dx="3694" dy="1406" grid="0" gridSize="10" guides="1" tooltips="1" connect="1" arrows="1" fold="1" page="1" pageScale="1" pageWidth="850" pageHeight="1100" math="0" shadow="0">
      <root>
        <mxCell id="0" />
        <mxCell id="1" parent="0" />
        <mxCell id="3nuBFxr9cyL0pnOWT2aG-1" value="&#xa;Classe MissionService" style="shape=umlLifeline;perimeter=lifelinePerimeter;container=1;collapsible=0;recursiveResize=0;rounded=0;shadow=0;strokeWidth=1;" parent="1" vertex="1">
          <mxGeometry x="364.32" y="80" width="130" height="2789" as="geometry" />
        </mxCell>
        <mxCell id="5L8-g9ovLrtgpSLUulJO-23" value="controle des régles métiers" style="html=1;verticalAlign=bottom;startArrow=oval;startFill=1;endArrow=block;startSize=8;rounded=0;exitX=0.52;exitY=0.636;exitDx=0;exitDy=0;exitPerimeter=0;entryX=0.52;entryY=0.788;entryDx=0;entryDy=0;entryPerimeter=0;" parent="3nuBFxr9cyL0pnOWT2aG-1" edge="1">
          <mxGeometry x="1" y="-72" width="60" relative="1" as="geometry">
            <mxPoint x="67.60000000000053" y="1520.48" as="sourcePoint" />
            <mxPoint x="67.60000000000008" y="1559.8399999999997" as="targetPoint" />
            <Array as="points">
              <mxPoint x="155.68" y="1530" />
            </Array>
            <mxPoint x="-71" y="72" as="offset" />
          </mxGeometry>
        </mxCell>
        <mxCell id="3nuBFxr9cyL0pnOWT2aG-5" value="JPA&#xa;(s&#39;occupe de la BDD)" style="shape=umlLifeline;perimeter=lifelinePerimeter;container=1;collapsible=0;recursiveResize=0;rounded=0;shadow=0;strokeWidth=1;" parent="1" vertex="1">
          <mxGeometry x="690" y="80" width="180" height="1090" as="geometry" />
        </mxCell>
        <mxCell id="5L8-g9ovLrtgpSLUulJO-5" value="&lt;div&gt;Controller&lt;/div&gt;&lt;div&gt;BE&lt;br&gt;&lt;/div&gt;" style="shape=umlLifeline;perimeter=lifelinePerimeter;whiteSpace=wrap;html=1;container=1;collapsible=0;recursiveResize=0;outlineConnect=0;" parent="1" vertex="1">
          <mxGeometry x="20" y="80" width="100" height="2990" as="geometry" />
        </mxCell>
        <mxCell id="5L8-g9ovLrtgpSLUulJO-72" value="&lt;div&gt;controle des accés&lt;/div&gt;" style="html=1;verticalAlign=bottom;startArrow=oval;startFill=1;endArrow=block;startSize=8;rounded=0;exitX=0.52;exitY=0.636;exitDx=0;exitDy=0;exitPerimeter=0;entryX=0.519;entryY=0.681;entryDx=0;entryDy=0;entryPerimeter=0;" parent="5L8-g9ovLrtgpSLUulJO-5" edge="1">
          <mxGeometry x="1" y="-70" width="60" relative="1" as="geometry">
            <mxPoint x="50.13000000000005" y="1283.65" as="sourcePoint" />
            <mxPoint x="50.0000000000004" y="1330" as="targetPoint" />
            <Array as="points">
              <mxPoint x="120" y="1284" />
            </Array>
            <mxPoint x="-69" y="70" as="offset" />
          </mxGeometry>
        </mxCell>
        <mxCell id="Jw-Lm7LRE4pyzQuO6-6R-11" value="Données mission" style="verticalAlign=bottom;endArrow=open;dashed=1;endSize=8;shadow=0;strokeWidth=1;" edge="1" parent="5L8-g9ovLrtgpSLUulJO-5">
          <mxGeometry relative="1" as="geometry">
            <mxPoint x="-169.99647058823513" y="850" as="targetPoint" />
            <mxPoint x="50.17999999999955" y="850" as="sourcePoint" />
            <Array as="points" />
          </mxGeometry>
        </mxCell>
        <mxCell id="5L8-g9ovLrtgpSLUulJO-13" value="Création de mission" style="shape=umlFrame;whiteSpace=wrap;html=1;width=185;height=30;boundedLbl=1;verticalAlign=middle;align=left;spacingLeft=5;" parent="1" vertex="1">
          <mxGeometry x="-360" y="10" width="1010" height="50" as="geometry" />
        </mxCell>
        <mxCell id="5L8-g9ovLrtgpSLUulJO-1" value="&lt;div&gt;controle des régles métiers&lt;/div&gt;" style="html=1;verticalAlign=bottom;startArrow=oval;startFill=1;endArrow=block;startSize=8;rounded=0;entryX=0.491;entryY=0.084;entryDx=0;entryDy=0;entryPerimeter=0;exitX=0.508;exitY=0.058;exitDx=0;exitDy=0;exitPerimeter=0;" parent="1" source="3nuBFxr9cyL0pnOWT2aG-1" target="3nuBFxr9cyL0pnOWT2aG-1" edge="1">
          <mxGeometry x="1" y="-70" width="60" relative="1" as="geometry">
            <mxPoint x="437.2099999999996" y="319.94000000000005" as="sourcePoint" />
            <mxPoint x="434.32352941176487" y="360" as="targetPoint" />
            <Array as="points">
              <mxPoint x="503" y="275" />
            </Array>
            <mxPoint x="-35" y="61" as="offset" />
          </mxGeometry>
        </mxCell>
        <mxCell id="5L8-g9ovLrtgpSLUulJO-69" style="edgeStyle=orthogonalEdgeStyle;rounded=0;orthogonalLoop=1;jettySize=auto;html=1;dashed=1;endArrow=none;endFill=0;" parent="1" source="5L8-g9ovLrtgpSLUulJO-2" edge="1">
          <mxGeometry relative="1" as="geometry">
            <mxPoint x="497" y="272" as="targetPoint" />
          </mxGeometry>
        </mxCell>
        <mxCell id="5L8-g9ovLrtgpSLUulJO-2" value="&lt;div&gt;E Intégritées des données&lt;/div&gt;&lt;div&gt;- la date n&#39;est pas antérieur au jour&lt;/div&gt;&lt;div&gt;- la nature est valide&lt;/div&gt;&lt;div&gt;&lt;br&gt;&lt;/div&gt;" style="shape=note2;boundedLbl=1;whiteSpace=wrap;html=1;size=13;verticalAlign=top;align=center;" parent="1" vertex="1">
          <mxGeometry x="530" y="220" width="200" height="110" as="geometry" />
        </mxCell>
        <mxCell id="5L8-g9ovLrtgpSLUulJO-20" value="Mise à jour Réussie" style="verticalAlign=bottom;endArrow=open;dashed=1;endSize=8;shadow=0;strokeWidth=1;entryX=0.513;entryY=0.86;entryDx=0;entryDy=0;entryPerimeter=0;" parent="1" edge="1">
          <mxGeometry relative="1" as="geometry">
            <mxPoint x="431.0099999999993" y="1724.8000000000002" as="targetPoint" />
            <mxPoint x="779.5" y="1724.8000000000002" as="sourcePoint" />
            <Array as="points" />
          </mxGeometry>
        </mxCell>
        <mxCell id="5L8-g9ovLrtgpSLUulJO-22" value="Modification Mission" style="verticalAlign=bottom;startArrow=oval;endArrow=block;startSize=8;shadow=0;strokeWidth=1;" parent="1" edge="1">
          <mxGeometry relative="1" as="geometry">
            <mxPoint x="70" y="1450" as="sourcePoint" />
            <mxPoint x="428.8199999999997" y="1450" as="targetPoint" />
            <Array as="points" />
          </mxGeometry>
        </mxCell>
        <mxCell id="5L8-g9ovLrtgpSLUulJO-71" style="edgeStyle=orthogonalEdgeStyle;rounded=0;orthogonalLoop=1;jettySize=auto;html=1;dashed=1;endArrow=none;endFill=0;" parent="1" source="5L8-g9ovLrtgpSLUulJO-24" edge="1">
          <mxGeometry relative="1" as="geometry">
            <mxPoint x="520" y="1610" as="targetPoint" />
          </mxGeometry>
        </mxCell>
        <mxCell id="5L8-g9ovLrtgpSLUulJO-25" value="Message d&#39;état" style="verticalAlign=bottom;endArrow=open;dashed=1;endSize=8;shadow=0;strokeWidth=1;exitX=0.482;exitY=0.895;exitDx=0;exitDy=0;exitPerimeter=0;" parent="1" edge="1">
          <mxGeometry relative="1" as="geometry">
            <mxPoint x="68" y="1766.1" as="targetPoint" />
            <mxPoint x="426.9800000000005" y="1766.1" as="sourcePoint" />
            <Array as="points" />
          </mxGeometry>
        </mxCell>
        <mxCell id="5L8-g9ovLrtgpSLUulJO-28" value="update Mission" style="verticalAlign=bottom;endArrow=block;shadow=0;strokeWidth=1;exitX=0.482;exitY=0.818;exitDx=0;exitDy=0;exitPerimeter=0;" parent="1" edge="1">
          <mxGeometry x="-0.0323" relative="1" as="geometry">
            <mxPoint x="426.9800000000005" y="1675.2399999999998" as="sourcePoint" />
            <mxPoint x="779.5" y="1675.2399999999998" as="targetPoint" />
            <Array as="points" />
            <mxPoint as="offset" />
          </mxGeometry>
        </mxCell>
        <mxCell id="5L8-g9ovLrtgpSLUulJO-33" value="Employé" style="shape=umlLifeline;perimeter=lifelinePerimeter;whiteSpace=wrap;html=1;container=1;collapsible=0;recursiveResize=0;outlineConnect=0;" parent="1" vertex="1">
          <mxGeometry x="-200" y="80" width="100" height="3020" as="geometry" />
        </mxCell>
        <mxCell id="5L8-g9ovLrtgpSLUulJO-34" value="Création Mission" style="verticalAlign=bottom;startArrow=oval;endArrow=block;startSize=8;shadow=0;strokeWidth=1;" parent="1" source="5L8-g9ovLrtgpSLUulJO-33" target="5L8-g9ovLrtgpSLUulJO-5" edge="1">
          <mxGeometry x="-0.1587" relative="1" as="geometry">
            <mxPoint x="-120" y="150" as="sourcePoint" />
            <mxPoint x="70" y="150" as="targetPoint" />
            <Array as="points">
              <mxPoint x="-10" y="140" />
            </Array>
            <mxPoint as="offset" />
          </mxGeometry>
        </mxCell>
        <mxCell id="5L8-g9ovLrtgpSLUulJO-37" value="Message d&#39;état" style="verticalAlign=bottom;endArrow=open;dashed=1;endSize=8;shadow=0;strokeWidth=1;" parent="1" source="5L8-g9ovLrtgpSLUulJO-5" target="5L8-g9ovLrtgpSLUulJO-33" edge="1">
          <mxGeometry relative="1" as="geometry">
            <mxPoint x="-150" y="230.00000000000003" as="targetPoint" />
            <mxPoint x="70" y="420" as="sourcePoint" />
            <Array as="points">
              <mxPoint x="20" y="540" />
            </Array>
          </mxGeometry>
        </mxCell>
        <mxCell id="5L8-g9ovLrtgpSLUulJO-35" value="Modification Mission" style="verticalAlign=bottom;startArrow=oval;endArrow=block;startSize=8;shadow=0;strokeWidth=1;" parent="1" edge="1">
          <mxGeometry relative="1" as="geometry">
            <mxPoint x="-152" y="1350" as="sourcePoint" />
            <mxPoint x="69.49999999999955" y="1350" as="targetPoint" />
            <Array as="points">
              <mxPoint x="-30" y="1350" />
            </Array>
          </mxGeometry>
        </mxCell>
        <mxCell id="3nuBFxr9cyL0pnOWT2aG-3" value="Création Mission" style="verticalAlign=bottom;startArrow=oval;endArrow=block;startSize=8;shadow=0;strokeWidth=1;" parent="1" source="5L8-g9ovLrtgpSLUulJO-5" target="3nuBFxr9cyL0pnOWT2aG-1" edge="1">
          <mxGeometry relative="1" as="geometry">
            <mxPoint x="360" y="150" as="sourcePoint" />
            <mxPoint x="415" y="342" as="targetPoint" />
            <Array as="points">
              <mxPoint x="295" y="340" />
            </Array>
          </mxGeometry>
        </mxCell>
        <mxCell id="5L8-g9ovLrtgpSLUulJO-60" value="&lt;div&gt;controle des accès &lt;br&gt;&lt;/div&gt;" style="html=1;verticalAlign=bottom;startArrow=oval;startFill=1;endArrow=block;startSize=8;rounded=0;" parent="1" edge="1">
          <mxGeometry x="1" y="-70" width="60" relative="1" as="geometry">
            <mxPoint x="69.92857142857133" y="160" as="sourcePoint" />
            <mxPoint x="70" y="200" as="targetPoint" />
            <Array as="points">
              <mxPoint x="135.68" y="160" />
            </Array>
            <mxPoint x="-34" y="60" as="offset" />
          </mxGeometry>
        </mxCell>
        <mxCell id="5L8-g9ovLrtgpSLUulJO-70" style="edgeStyle=orthogonalEdgeStyle;rounded=0;orthogonalLoop=1;jettySize=auto;html=1;dashed=1;endArrow=none;endFill=0;" parent="1" source="5L8-g9ovLrtgpSLUulJO-61" edge="1">
          <mxGeometry relative="1" as="geometry">
            <mxPoint x="130" y="160" as="targetPoint" />
          </mxGeometry>
        </mxCell>
        <mxCell id="5L8-g9ovLrtgpSLUulJO-61" value="&lt;div&gt;E droits non valides&lt;/div&gt;&lt;div&gt;- pas un collaborateur&lt;/div&gt;" style="shape=note2;boundedLbl=1;whiteSpace=wrap;html=1;size=13;verticalAlign=top;align=center;" parent="1" vertex="1">
          <mxGeometry x="195.68" y="130" width="184.32" height="60" as="geometry" />
        </mxCell>
        <mxCell id="5L8-g9ovLrtgpSLUulJO-65" style="edgeStyle=orthogonalEdgeStyle;rounded=0;orthogonalLoop=1;jettySize=auto;html=1;dashed=1;strokeColor=none;endArrow=none;endFill=0;" parent="1" source="5L8-g9ovLrtgpSLUulJO-63" edge="1">
          <mxGeometry relative="1" as="geometry">
            <mxPoint x="120" y="1400" as="targetPoint" />
          </mxGeometry>
        </mxCell>
        <mxCell id="5L8-g9ovLrtgpSLUulJO-66" style="edgeStyle=orthogonalEdgeStyle;rounded=0;orthogonalLoop=1;jettySize=auto;html=1;dashed=1;endArrow=none;endFill=0;" parent="1" source="5L8-g9ovLrtgpSLUulJO-63" edge="1">
          <mxGeometry relative="1" as="geometry">
            <mxPoint x="130" y="1370" as="targetPoint" />
          </mxGeometry>
        </mxCell>
        <mxCell id="5L8-g9ovLrtgpSLUulJO-63" value="&lt;div&gt;E droits non valides&lt;/div&gt;&lt;div&gt;- le statut ne peux être changé que par le manageur&lt;/div&gt;&lt;div&gt;- les propriété ne peuvent être changées que par le créateur&lt;br&gt;&lt;/div&gt;" style="shape=note2;boundedLbl=1;whiteSpace=wrap;html=1;size=13;verticalAlign=top;align=center;" parent="1" vertex="1">
          <mxGeometry x="180" y="1310" width="184.32" height="100" as="geometry" />
        </mxCell>
        <mxCell id="5L8-g9ovLrtgpSLUulJO-24" value="&lt;div&gt;E données non valides&lt;br&gt;&lt;/div&gt;&lt;div&gt;- la mission est VALIDEE et seul son status peut être modifiée&lt;/div&gt;&lt;div&gt;- La mission est TERMINEE et ne peux être modifié&lt;/div&gt;&lt;div&gt;- la nature de la mission n&#39;est pas valide&lt;br&gt;&lt;/div&gt;&lt;div&gt;- la date de début ne peux être égale ou antérieur à la date du jour&lt;/div&gt;&lt;div&gt;- la date de fin ne peux être antérieure à la date de début&lt;br&gt;&lt;/div&gt;" style="shape=note2;boundedLbl=1;whiteSpace=wrap;html=1;size=13;verticalAlign=top;align=center;" parent="1" vertex="1">
          <mxGeometry x="480" y="1310" width="280" height="169" as="geometry" />
        </mxCell>
        <mxCell id="5L8-g9ovLrtgpSLUulJO-74" value="Message d&#39;état" style="verticalAlign=bottom;endArrow=open;dashed=1;endSize=8;shadow=0;strokeWidth=1;" parent="1" edge="1">
          <mxGeometry relative="1" as="geometry">
            <mxPoint x="-152" y="1800" as="targetPoint" />
            <mxPoint x="69.5" y="1800" as="sourcePoint" />
            <Array as="points">
              <mxPoint x="30" y="1800" />
            </Array>
          </mxGeometry>
        </mxCell>
        <mxCell id="5L8-g9ovLrtgpSLUulJO-81" value="&lt;div&gt;Modification&amp;nbsp; de mission&lt;/div&gt;" style="shape=umlFrame;whiteSpace=wrap;html=1;width=185;height=30;boundedLbl=1;verticalAlign=middle;align=left;spacingLeft=5;" parent="1" vertex="1">
          <mxGeometry x="-360" y="1210" width="1010" height="50" as="geometry" />
        </mxCell>
        <mxCell id="Jw-Lm7LRE4pyzQuO6-6R-1" value="&lt;div&gt;Afficher mission&lt;/div&gt;" style="shape=umlFrame;whiteSpace=wrap;html=1;width=185;height=30;boundedLbl=1;verticalAlign=middle;align=left;spacingLeft=5;" vertex="1" parent="1">
          <mxGeometry x="-347" y="667" width="1010" height="50" as="geometry" />
        </mxCell>
        <mxCell id="Jw-Lm7LRE4pyzQuO6-6R-2" value="Demande d&#39;information d&#39;une mission" style="verticalAlign=bottom;startArrow=oval;endArrow=block;startSize=8;shadow=0;strokeWidth=1;" edge="1" parent="1" source="5L8-g9ovLrtgpSLUulJO-33" target="5L8-g9ovLrtgpSLUulJO-5">
          <mxGeometry x="-0.1587" relative="1" as="geometry">
            <mxPoint x="-149.99857142857155" y="730" as="sourcePoint" />
            <mxPoint x="70.43" y="730" as="targetPoint" />
            <Array as="points">
              <mxPoint x="-9.07" y="730" />
            </Array>
            <mxPoint as="offset" />
          </mxGeometry>
        </mxCell>
        <mxCell id="Jw-Lm7LRE4pyzQuO6-6R-3" value="&lt;div&gt;controle des accès &lt;br&gt;&lt;/div&gt;" style="html=1;verticalAlign=bottom;startArrow=oval;startFill=1;endArrow=block;startSize=8;rounded=0;" edge="1" parent="1">
          <mxGeometry x="1" y="-70" width="60" relative="1" as="geometry">
            <mxPoint x="69.92857142857156" y="750" as="sourcePoint" />
            <mxPoint x="69.99999999999955" y="790" as="targetPoint" />
            <Array as="points">
              <mxPoint x="135.68" y="750" />
            </Array>
            <mxPoint x="-34" y="60" as="offset" />
          </mxGeometry>
        </mxCell>
        <mxCell id="Jw-Lm7LRE4pyzQuO6-6R-14" style="edgeStyle=orthogonalEdgeStyle;rounded=0;orthogonalLoop=1;jettySize=auto;html=1;dashed=1;endArrow=none;endFill=0;" edge="1" parent="1" source="Jw-Lm7LRE4pyzQuO6-6R-4">
          <mxGeometry relative="1" as="geometry">
            <mxPoint x="122.40000000000009" y="750" as="targetPoint" />
          </mxGeometry>
        </mxCell>
        <mxCell id="Jw-Lm7LRE4pyzQuO6-6R-4" value="&lt;div&gt;E droits non valides&lt;/div&gt;&lt;div&gt;- pas un collaborateur&lt;/div&gt;" style="shape=note2;boundedLbl=1;whiteSpace=wrap;html=1;size=13;verticalAlign=top;align=center;" vertex="1" parent="1">
          <mxGeometry x="195.68" y="720" width="184.32" height="60" as="geometry" />
        </mxCell>
        <mxCell id="Jw-Lm7LRE4pyzQuO6-6R-5" value="insert Mission" style="verticalAlign=bottom;endArrow=block;shadow=0;strokeWidth=1;" edge="1" parent="1" source="3nuBFxr9cyL0pnOWT2aG-1" target="3nuBFxr9cyL0pnOWT2aG-5">
          <mxGeometry x="-0.0317" relative="1" as="geometry">
            <mxPoint x="431.56000000000057" y="423.3799999999999" as="sourcePoint" />
            <mxPoint x="780.1799999999995" y="380" as="targetPoint" />
            <Array as="points">
              <mxPoint x="640.68" y="380" />
            </Array>
            <mxPoint as="offset" />
          </mxGeometry>
        </mxCell>
        <mxCell id="Jw-Lm7LRE4pyzQuO6-6R-6" value="Insertion Réussie" style="verticalAlign=bottom;endArrow=open;dashed=1;endSize=8;shadow=0;strokeWidth=1;" edge="1" parent="1" source="3nuBFxr9cyL0pnOWT2aG-5" target="3nuBFxr9cyL0pnOWT2aG-1">
          <mxGeometry x="0.0999" relative="1" as="geometry">
            <mxPoint x="429.4800000000002" y="446.9799999999998" as="targetPoint" />
            <Array as="points">
              <mxPoint x="724" y="516" />
            </Array>
            <mxPoint as="offset" />
            <mxPoint x="780.1799999999995" y="446.9799999999998" as="sourcePoint" />
          </mxGeometry>
        </mxCell>
        <mxCell id="Jw-Lm7LRE4pyzQuO6-6R-8" value="select Mission" style="verticalAlign=bottom;endArrow=block;shadow=0;strokeWidth=1;exitX=0.512;exitY=0.291;exitDx=0;exitDy=0;exitPerimeter=0;entryX=0.496;entryY=0.691;entryDx=0;entryDy=0;entryPerimeter=0;" edge="1" parent="1" target="3nuBFxr9cyL0pnOWT2aG-5">
          <mxGeometry x="-0.0317" relative="1" as="geometry">
            <mxPoint x="432.2400000000004" y="843.3799999999999" as="sourcePoint" />
            <mxPoint x="780.8599999999993" y="800" as="targetPoint" />
            <Array as="points" />
            <mxPoint as="offset" />
          </mxGeometry>
        </mxCell>
        <mxCell id="Jw-Lm7LRE4pyzQuO6-6R-9" value="Data mission" style="verticalAlign=bottom;endArrow=open;dashed=1;endSize=8;shadow=0;strokeWidth=1;entryX=0.496;entryY=0.311;entryDx=0;entryDy=0;entryPerimeter=0;" edge="1" parent="1">
          <mxGeometry x="0.0999" relative="1" as="geometry">
            <mxPoint x="430.1600000000005" y="866.9799999999998" as="targetPoint" />
            <Array as="points" />
            <mxPoint as="offset" />
            <mxPoint x="780.8599999999993" y="866.9799999999998" as="sourcePoint" />
          </mxGeometry>
        </mxCell>
        <mxCell id="Jw-Lm7LRE4pyzQuO6-6R-10" value="Données mission" style="verticalAlign=bottom;endArrow=open;dashed=1;endSize=8;shadow=0;strokeWidth=1;exitX=0.514;exitY=0.332;exitDx=0;exitDy=0;exitPerimeter=0;" edge="1" parent="1">
          <mxGeometry relative="1" as="geometry">
            <mxPoint x="70.68352941176471" y="891.76" as="targetPoint" />
            <mxPoint x="432.50000000000017" y="891.76" as="sourcePoint" />
            <Array as="points" />
          </mxGeometry>
        </mxCell>
        <mxCell id="Jw-Lm7LRE4pyzQuO6-6R-13" value="Message d&#39;état" style="verticalAlign=bottom;endArrow=open;dashed=1;endSize=8;shadow=0;strokeWidth=1;" edge="1" parent="1" source="3nuBFxr9cyL0pnOWT2aG-1" target="5L8-g9ovLrtgpSLUulJO-5">
          <mxGeometry relative="1" as="geometry">
            <mxPoint x="74" y="474" as="targetPoint" />
            <mxPoint x="432.9800000000005" y="474" as="sourcePoint" />
            <Array as="points">
              <mxPoint x="374" y="538" />
            </Array>
          </mxGeometry>
        </mxCell>
      </root>
    </mxGraphModel>
  </diagram>
</mxfile>
